<svg viewBox="0.001 0.018 110.094 124.342"><defs><linearGradient id="BG1" x1="100%" x2="50%" y1="9.946%" y2="50%"><stop offset="0%" stop-color="#431A9E"></stop><stop offset="100%" stop-color="#7635dc"></stop></linearGradient><linearGradient id="BG2" x1="50%" x2="50%" y1="0%" y2="100%"><stop offset="0%" stop-color="#B985F4"></stop><stop offset="100%" stop-color="#7635dc"></stop></linearGradient><linearGradient id="BG3" x1="50%" x2="50%" y1="0%" y2="100%"><stop offset="0%" stop-color="#B985F4"></stop><stop offset="100%" stop-color="#7635dc"></stop></linearGradient></defs><path d="M78.36 47.89C72 35.44 64.18 30.44 52.14 31.67c-7.72.78-13 5.12-17.22 11.64C31.36 48.83 31 54.7 31 60.76c0 13.42.22 26.83.3 40.25 0 1.17.65 2.74-.62 3.42s-2.37-.51-3.32-1.14C7.84 90.62-2.09 72.79.37 49.47 2.77 26.7 15.78 11.49 37 3.13a9 9 0 0 1 5.21-.77c6 3.6 12.57 6.08 18.07 10.56C71.38 22 78.23 33.18 78.36 47.89z" fill="url(#BG1)"></path><path d="M78.36 47.89c-.13-14.71-7-25.9-18.11-35-5.5-4.48-12.1-7-18.07-10.56A4.68 4.68 0 0 1 45.07 1c24.82-5 51.74 9.56 61.13 33a51.34 51.34 0 0 1 1.45 5.1 13.33 13.33 0 0 0-1.34 2.45 80 80 0 0 1-13.38 26.36c-10.6 13.63-27.26 18.36-41.79 11.75 6.91-.17 13.68-.83 19.21-5.62 8.13-7.04 10.44-15.87 8.01-26.15z" fill="url(#BG2)"></path><path d="M107.65 39.1a13.33 13.33 0 0 0-1.34 2.45 80 80 0 0 1-13.38 26.36c-10.6 13.63-27.26 18.36-41.79 11.75-2.74-1.25-3.94-.62-3.8 2.63.22 5.32.13 10.66.17 16v26.07c11.24-6.82 22-13.42 32.84-19.93C89.2 99.1 97 92.71 102.18 83.59c8.39-14.02 9.93-28.88 5.47-44.49z" fill="url(#BG3)"></path></svg>