<svg width="240" height="76" xmlns="http://www.w3.org/2000/svg" preserveAspectRatio="xMidYMid meet">
 <!-- Created with Method Draw - http://github.com/duopixel/Method-Draw/ -->
 <g>
  <title>Layer 1</title>
  <g stroke="null" id="svg_3" class="icon-text-wrapper icon-svg-group iconsvg" fill="#333">
   <g stroke="null" id="svg_26" class="iconsvg-imagesvg">
    <g stroke="null" id="svg_25">
     <rect stroke="null" id="svg_17" class="image-rect" height="75.897042" width="67.2" y="0.000004" x="0" stroke-width="2" fill-opacity="0" fill="#333"/>
     <g y="132.262104" x="227.607483" stroke="null" id="svg_24">
      <svg stroke="null" id="svg_23" class="image-svg-svg primary" height="75.897042" width="67.2" y="0.000004" x="0">
       <g stroke="null" id="svg_22">
        <svg stroke="null" id="svg_21" viewBox="0.00089263916015625 0.017856299877166748 110.09355926513672 124.34214782714844">
         <path stroke="null" id="svg_18" fill="#324681" d="m78.36,47.89c-6.36,-12.45 -14.18,-17.45 -26.22,-16.22c-7.72,0.78 -13,5.12 -17.22,11.64c-3.56,5.52 -3.92,11.39 -3.92,17.45c0,13.42 0.22,26.83 0.3,40.25c0,1.17 0.65,2.74 -0.62,3.42s-2.37,-0.51 -3.32,-1.14c-19.52,-12.67 -29.45,-30.5 -26.99,-53.82c2.4,-22.77 15.41,-37.98 36.63,-46.34a9,9 0 0 1 5.21,-0.77c6,3.6 12.57,6.08 18.07,10.56c11.1,9.08 17.95,20.26 18.08,34.97z"/>
         <path stroke="null" id="svg_19" fill="#d7000f" d="m78.36,47.89c-0.13,-14.71 -7,-25.9 -18.11,-35c-5.5,-4.48 -12.1,-7 -18.07,-10.56a4.68,4.68 0 0 1 2.89,-1.33c24.82,-5 51.74,9.56 61.13,33a51.34,51.34 0 0 1 1.45,5.1a13.33,13.33 0 0 0 -1.34,2.45a80,80 0 0 1 -13.38,26.36c-10.6,13.63 -27.26,18.36 -41.79,11.75c6.91,-0.17 13.68,-0.83 19.21,-5.62c8.13,-7.04 10.44,-15.87 8.01,-26.15z"/>
         <path stroke="null" id="svg_20" fill="#324681" d="m107.65,39.1a13.33,13.33 0 0 0 -1.34,2.45a80,80 0 0 1 -13.38,26.36c-10.6,13.63 -27.26,18.36 -41.79,11.75c-2.74,-1.25 -3.94,-0.62 -3.8,2.63c0.22,5.32 0.13,10.66 0.17,16l0,26.07c11.24,-6.82 22,-13.42 32.84,-19.93c8.85,-5.33 16.65,-11.72 21.83,-20.84c8.39,-14.02 9.93,-28.88 5.47,-44.49z"/>
        </svg>
       </g>
      </svg>
     </g>
    </g>
   </g>
   <g stroke="null" id="svg_31">
    <g stroke="null" id="svg_30" class="tp-name iconsvg-namesvg">
     <g stroke="null" id="svg_29" transform="translate(49.76499938964844,87.05148315429688) scale(1) ">
      <g stroke="null" id="svg_28">
       <path stroke="null" id="svg_27" d="m38.965007,-80.92444l0,42.51l6.58,0l0,-13.9l4.01,0q6.81,0 10.38,-3.61q3.58,-3.6 3.58,-10.53l0,0q0,-7.09 -3.43,-10.78q-3.44,-3.69 -9.9,-3.69l0,0l-11.22,0zm10.47,5.72q3.78,0 5.64,2.14q1.86,2.15 1.86,6.61l0,0q0,4.29 -1.86,6.38q-1.86,2.09 -5.64,2.09l0,0l-3.89,0l0,-17.22l3.89,0zm29.64,4.12q-4.8,0 -7.32,2.6q-2.52,2.6 -3.15,7.93l0,0l5.61,0.57q0.17,-3.26 1.2,-4.75q1.03,-1.49 3.32,-1.49l0,0q2.06,0 2.97,1.26q0.92,1.26 0.92,4.06l0,0l0,2.35l-5.55,1.37q-9.04,2.06 -9.04,10.07l0,0q0,4.06 2.06,6.41q2.06,2.35 5.72,2.35l0,0q4.63,0 6.92,-4.35l0,0q0.29,2.23 1.35,3.23q1.06,1 3.23,1l0,0q1.55,0 3.03,-0.4l0,0l0.17,-4.4l-0.74,0.05q-1.2,0 -1.2,-1.43l0,0l0,-16.53q0,-9.9 -9.5,-9.9l0,0zm-1.31,27.92q-1.84,0 -2.81,-1.09q-0.97,-1.08 -0.97,-3.26l0,0q0,-2.23 1.17,-3.6q1.18,-1.38 3.81,-2.06l0,0l3.66,-0.92l0,2.46q0,4.06 -1.26,6.27q-1.26,2.2 -3.6,2.2l0,0zm38.96,-27.86l-5.55,0l-4.86,21.51l-5.44,-21.51l-5.84,0l8.42,29.92q-0.75,2.69 -1.32,4q-0.57,1.32 -1.4,1.84q-0.83,0.51 -2.26,0.51l0,0q-0.8,0 -1.72,-0.11l0,0l0.12,4.92q1.25,0.4 2.63,0.4l0,0q3.43,0 5.32,-1.98q1.89,-1.97 3.15,-6.83l0,0l8.75,-32.67zm4.06,-9.5l0,42.51l6.64,0l0,-18.94l12.64,0l0,18.94l6.58,0l0,-42.51l-6.58,0l0,17.73l-12.64,0l0,-17.73l-6.64,0zm47.72,28.09q0,3.95 -1.23,6.01q-1.23,2.06 -3.46,2.06l0,0q-1.89,0 -2.78,-1.23q-0.88,-1.23 -0.88,-3.75l0,0l0,-21.06l-5.95,0l0,22.66q0,4.41 2,6.75q2,2.35 5.55,2.35l0,0q4.98,0 7.15,-4.98l0,0l0.57,4.46l4.92,0l0,-31.24l-5.89,0l0,17.97zm16.02,-28.72l-0.06,6.75l6.24,0l0,-6.75l-6.18,0zm0.06,11.16l0,31.81l5.95,0l0,-31.81l-5.95,0z"/>
      </g>
     </g>
    </g>
   </g>
  </g>
 </g>
</svg>